<svg width="160" height="42" viewBox="0 0 160 42" fill="none" xmlns="http://www.w3.org/2000/svg">
<g clip-path="url(#clip0_508_74)">
<path opacity="0.4" d="M0 0C30 0 40 20 80 20C120 20 130 0 160 0" stroke="#0551CF" stroke-width="0.5"/>
<path opacity="0.4" d="M0 42C30 42 40 22 80 22C120 22 130 42 160 42" stroke="#0551CF" stroke-width="0.5"/>
<path opacity="0.6" d="M56 31C47.5 31 39 11 22 11C10.6667 11 5 17.6667 5 31" stroke="#0551CF" stroke-width="0.5"/>
<path opacity="0.6" d="M104 31C112.5 31 121 11 138 11C149.333 11 155 17.6667 155 31" stroke="#0551CF" stroke-width="0.5"/>
<path d="M31 14C30.4477 14 30 13.5523 30 13C30 12.4477 30.4477 12 31 12C31.5523 12 32 12.4477 32 13C32 13.5523 31.5523 14 31 14Z" fill="#0551CF"/>
<path d="M5 32C4.44772 32 4 31.5523 4 31C4 30.4477 4.44772 30 5 30C5.55228 30 6 30.4477 6 31C6 31.5523 5.55228 32 5 32Z" fill="#0551CF"/>
<path d="M155 32C154.448 32 154 31.5523 154 31C154 30.4477 154.448 30 155 30C155.552 30 156 30.4477 156 31C156 31.5523 155.552 32 155 32Z" fill="#0551CF"/>
<path d="M129 14C128.448 14 128 13.5523 128 13C128 12.4477 128.448 12 129 12C129.552 12 130 12.4477 130 13C130 13.5523 129.552 14 129 14Z" fill="#0551CF"/>
<path d="M49.732 13.476L50.668 30H48.664L48.148 21.372C48.124 20.788 48.1 20.196 48.076 19.596C48.052 18.996 48.036 18.42 48.028 17.868C48.02 17.316 48.016 16.824 48.016 16.392C48.016 15.96 48.016 15.624 48.016 15.384L45.232 27.036H43.144L40.156 15.384C40.164 15.616 40.172 15.96 40.18 16.416C40.188 16.864 40.192 17.372 40.192 17.94C40.2 18.508 40.196 19.092 40.18 19.692C40.172 20.284 40.156 20.836 40.132 21.348L39.688 30H37.732L38.668 13.476H41.572L44.248 24.792L46.804 13.476H49.732ZM62.4306 21.66C62.4306 20.22 62.2786 19.068 61.9746 18.204C61.6706 17.34 61.2706 16.692 60.7746 16.26C60.2786 15.828 59.7346 15.54 59.1426 15.396C58.5586 15.252 57.9826 15.18 57.4146 15.18H55.4706V28.332H57.4386C58.0306 28.332 58.6186 28.24 59.2026 28.056C59.7946 27.864 60.3346 27.528 60.8226 27.048C61.3106 26.56 61.6986 25.884 61.9866 25.02C62.2826 24.148 62.4306 23.028 62.4306 21.66ZM64.6506 21.66C64.6506 23.036 64.5026 24.212 64.2066 25.188C63.9186 26.156 63.5226 26.956 63.0186 27.588C62.5146 28.22 61.9386 28.712 61.2906 29.064C60.6506 29.408 59.9746 29.652 59.2626 29.796C58.5586 29.932 57.8666 30 57.1866 30H53.3946V13.476H56.9226C57.8906 13.476 58.8306 13.584 59.7426 13.8C60.6626 14.016 61.4906 14.416 62.2266 15C62.9706 15.576 63.5586 16.4 63.9906 17.472C64.4306 18.544 64.6506 19.94 64.6506 21.66ZM78.6573 25.428C78.6573 26.372 78.4213 27.212 77.9493 27.948C77.4773 28.676 76.7933 29.248 75.8973 29.664C75.0013 30.072 73.9093 30.276 72.6213 30.276C71.4133 30.276 70.3173 30.092 69.3333 29.724C68.3573 29.356 67.5213 28.836 66.8253 28.164L68.0613 26.772C68.6373 27.308 69.2973 27.736 70.0413 28.056C70.7853 28.368 71.6573 28.524 72.6573 28.524C73.3293 28.524 73.9573 28.416 74.5413 28.2C75.1253 27.976 75.5973 27.64 75.9573 27.192C76.3173 26.736 76.4973 26.16 76.4973 25.464C76.4973 24.928 76.3933 24.472 76.1853 24.096C75.9773 23.72 75.6093 23.388 75.0813 23.1C74.5533 22.804 73.8173 22.516 72.8733 22.236C71.7853 21.916 70.8413 21.556 70.0413 21.156C69.2493 20.748 68.6333 20.248 68.1933 19.656C67.7613 19.064 67.5452 18.332 67.5452 17.46C67.5452 16.636 67.7733 15.904 68.2293 15.264C68.6853 14.624 69.3133 14.124 70.1133 13.764C70.9213 13.396 71.8493 13.212 72.8973 13.212C74.0413 13.212 75.0333 13.376 75.8733 13.704C76.7213 14.024 77.4893 14.488 78.1772 15.096L76.9533 16.452C76.3613 15.924 75.7253 15.544 75.0453 15.312C74.3653 15.072 73.6733 14.952 72.9693 14.952C72.3693 14.952 71.8173 15.044 71.3133 15.228C70.8173 15.404 70.4173 15.672 70.1133 16.032C69.8173 16.384 69.6693 16.836 69.6693 17.388C69.6693 17.86 69.7973 18.268 70.0533 18.612C70.3093 18.956 70.7413 19.272 71.3493 19.56C71.9573 19.84 72.7853 20.136 73.8333 20.448C74.6893 20.696 75.4813 21.008 76.2093 21.384C76.9453 21.752 77.5373 22.256 77.9853 22.896C78.4333 23.528 78.6573 24.372 78.6573 25.428ZM85.2479 28.152C85.2479 27.76 85.3399 27.408 85.5239 27.096C85.7079 26.776 85.9559 26.524 86.2679 26.34C86.5879 26.148 86.9479 26.052 87.3479 26.052C87.7559 26.052 88.1199 26.148 88.4399 26.34C88.7599 26.524 89.0119 26.776 89.1959 27.096C89.3799 27.408 89.4719 27.76 89.4719 28.152C89.4719 28.544 89.3799 28.904 89.1959 29.232C89.0119 29.552 88.7599 29.808 88.4399 30C88.1199 30.184 87.7559 30.276 87.3479 30.276C86.9479 30.276 86.5879 30.184 86.2679 30C85.9559 29.808 85.7079 29.552 85.5239 29.232C85.3399 28.904 85.2479 28.544 85.2479 28.152ZM104.967 25.788H98.4265L97.1065 30H95.0545L100.431 13.476H103.095L108.471 30H106.287L104.967 25.788ZM98.9665 24.06H104.427L101.715 15.228L98.9665 24.06ZM120.881 13.476V15.144H117.209V28.332H120.881V30H111.425V28.332H115.097V15.144H111.425V13.476H120.881Z" fill="#0551CF"/>
<path d="M37 33C58.5 33 63.875 17 80 17C96.125 17 101.5 33 123 33" fill="#0551CF" fill-opacity="0.1"/>
<path d="M37 33C58.5 33 63.875 17 80 17C96.125 17 101.5 33 123 33" stroke="url(#paint0_linear_508_74)" stroke-width="0.5"/>
<g opacity="0.4">
<path d="M155 31C129 13 155 31 129 13ZM5 31L31 13Z" fill="black"/>
<path d="M155 31C129 13 155 31 129 13M5 31L31 13" stroke="#0551CF" stroke-width="0.3"/>
</g>
</g>
<defs>
<linearGradient id="paint0_linear_508_74" x1="37" y1="17" x2="8637" y2="17" gradientUnits="userSpaceOnUse">
<stop stop-color="#0551CF" stop-opacity="0.2"/>
<stop offset="0.5" stop-color="#0551CF" stop-opacity="0.8"/>
<stop offset="1" stop-color="#0551CF" stop-opacity="0.2"/>
</linearGradient>
<clipPath id="clip0_508_74">
<rect width="160" height="42" fill="white"/>
</clipPath>
</defs>
</svg>
